Coordinates
version=1
nRows=13
nColumns=38
inDegrees=no

Units are S.I. units (second, meters, Newtons, ...)
If the header above contains a line with 'inDegrees', this indicates whether rotational values are in degrees (yes) or radians (no).

endheader
time	pelvis_tilt	pelvis_list	pelvis_rotation	pelvis_tx	pelvis_ty	pelvis_tz	hip_flexion_r	hip_adduction_r	hip_rotation_r	knee_angle_r	ankle_angle_r	subtalar_angle_r	mtp_angle_r	hip_flexion_l	hip_adduction_l	hip_rotation_l	knee_angle_l	ankle_angle_l	subtalar_angle_l	mtp_angle_l	lumbar_extension	lumbar_bending	lumbar_rotation	arm_flex_r	arm_add_r	arm_rot_r	elbow_flex_r	pro_sup_r	wrist_flex_r	wrist_dev_r	arm_flex_l	arm_add_l	arm_rot_l	elbow_flex_l	pro_sup_l	wrist_flex_l	wrist_dev_l
20.97	2.94836	1.33925	-1.27354	0.684639	-0.217736	0.952576	-0.266188	0.0736485	-0.0412712	0.189747	-0.239765	0	0	-0.214955	-0.176348	-0.0712603	0.282584	-0.199875	0	0	-0.401784	0.0212259	0.0652507	0.440131	-0.556847	0.136295	1.57783	1.5708	0	0	0.683075	-0.332861	0.454748	1.3343	1.5708	0	0
20.98	2.95005	1.33748	-1.27462	0.685357	-0.218089	0.952559	-0.269545	0.0751534	-0.0411811	0.185955	-0.240608	0	0	-0.208007	-0.177779	-0.0775681	0.299504	-0.194355	0	0	-0.403797	0.0215383	0.0635926	0.445882	-0.555093	0.142389	1.57535	1.5708	0	0	0.685372	-0.334127	0.452274	1.3301	1.5708	0	0
20.99	2.9524	1.33634	-1.27587	0.68595	-0.218437	0.952513	-0.272357	0.0758311	-0.0418599	0.181647	-0.242045	0	0	-0.199406	-0.178941	-0.0831893	0.317894	-0.189591	0	0	-0.405237	0.0217435	0.0618076	0.450486	-0.553472	0.147341	1.57356	1.5708	0	0	0.688053	-0.335112	0.450653	1.32568	1.5708	0	0
21	2.95349	1.33495	-1.27614	0.686469	-0.218913	0.952512	-0.274679	0.0773672	-0.0434361	0.17883	-0.243089	0	0	-0.19	-0.180587	-0.0895932	0.337807	-0.185136	0	0	-0.407225	0.0222515	0.0605184	0.455131	-0.552272	0.151833	1.57192	1.5708	0	0	0.691473	-0.336319	0.450132	1.32146	1.5708	0	0
21.01	2.95598	1.33292	-1.27763	0.686808	-0.219539	0.952605	-0.277276	0.0782938	-0.0452515	0.176472	-0.244363	0	0	-0.180358	-0.182063	-0.0963338	0.359113	-0.180997	0	0	-0.410299	0.0228637	0.0593073	0.459984	-0.551542	0.155703	1.57032	1.5708	0	0	0.695826	-0.337359	0.450781	1.31735	1.5708	0	0
21.02	2.96109	1.33078	-1.28134	0.687029	-0.220124	0.952762	-0.280266	0.0782999	-0.0474965	0.17365	-0.246202	0	0	-0.170559	-0.18307	-0.103578	0.381071	-0.177226	0	0	-0.413544	0.022972	0.0579191	0.46396	-0.550808	0.158306	1.56878	1.5708	0	0	0.700461	-0.33806	0.45236	1.31339	1.5708	0	0
21.03	2.96771	1.32818	-1.28615	0.687166	-0.220603	0.953021	-0.284246	0.0781366	-0.0501895	0.170379	-0.248361	0	0	-0.161534	-0.184004	-0.111237	0.402798	-0.173655	0	0	-0.417032	0.0230134	0.0566311	0.466789	-0.550219	0.159699	1.56745	1.5708	0	0	0.705156	-0.338013	0.454688	1.30913	1.5708	0	0
21.04	2.97605	1.32461	-1.29229	0.687187	-0.221017	0.953406	-0.289765	0.0779549	-0.0532271	0.166614	-0.250818	0	0	-0.154317	-0.184852	-0.119018	0.42359	-0.170472	0	0	-0.421496	0.0228828	0.0553003	0.468763	-0.549906	0.160079	1.5663	1.5708	0	0	0.709879	-0.337943	0.457952	1.30533	1.5708	0	0
21.05	2.98591	1.32022	-1.29993	0.687109	-0.221364	0.953861	-0.296394	0.0775755	-0.0560461	0.162413	-0.25372	0	0	-0.149253	-0.185324	-0.127304	0.442652	-0.167098	0	0	-0.426574	0.0223307	0.0539918	0.470337	-0.549846	0.159989	1.56472	1.5708	0	0	0.714366	-0.33798	0.461945	1.30198	1.5708	0	0
21.06	2.99703	1.31511	-1.30892	0.686932	-0.221608	0.954374	-0.30409	0.0769457	-0.0586628	0.157865	-0.257031	0	0	-0.146781	-0.185259	-0.136458	0.459209	-0.162952	0	0	-0.432098	0.0215718	0.0527329	0.471569	-0.549959	0.159548	1.56289	1.5708	0	0	0.718379	-0.337727	0.465977	1.29898	1.5708	0	0
21.07	3.00972	1.30842	-1.31945	0.686614	-0.221699	0.955033	-0.314155	0.0761135	-0.062179	0.152557	-0.260914	0	0	-0.14828	-0.184494	-0.146148	0.47255	-0.157951	0	0	-0.439042	0.0207618	0.0515131	0.472172	-0.550171	0.158316	1.56133	1.5708	0	0	0.721969	-0.337299	0.470102	1.29656	1.5708	0	0
21.08	3.01832	1.30728	-1.32968	0.686491	-0.221998	0.95529	-0.315483	0.0733651	-0.0582347	0.152943	-0.262161	0	0	-0.145292	-0.181731	-0.155653	0.48436	-0.152112	0	0	-0.440492	0.0184005	0.0530475	0.472699	-0.550304	0.157138	1.55932	1.5708	0	0	0.724332	-0.336773	0.473636	1.29448	1.5708	0	0
21.09	3.02605	1.3069	-1.33943	0.686288	-0.222128	0.95549	-0.315739	0.0703681	-0.0542277	0.154267	-0.2621	0	0	-0.143166	-0.178278	-0.164132	0.493243	-0.146054	0	0	-0.440332	0.0159094	0.0548395	0.472512	-0.550521	0.155997	1.55674	1.5708	0	0	0.725588	-0.335584	0.477033	1.29208	1.5708	0	0
